<svg width="23" height="22" viewBox="0 0 23 22" fill="none" xmlns="http://www.w3.org/2000/svg">
<path d="M4 21C4 21.2761 4.22386 21.5 4.5 21.5C4.77614 21.5 5 21.2761 5 21H4ZM4.85355 0.646447C4.65829 0.451184 4.34171 0.451184 4.14645 0.646447L0.964466 3.82843C0.769204 4.02369 0.769204 4.34027 0.964466 4.53553C1.15973 4.7308 1.47631 4.7308 1.67157 4.53553L4.5 1.70711L7.32843 4.53553C7.52369 4.7308 7.84027 4.7308 8.03553 4.53553C8.2308 4.34027 8.2308 4.02369 8.03553 3.82843L4.85355 0.646447ZM5 21V1H4V21H5Z" fill="#120C5A"/>
<path d="M2 17C1.72386 17 1.5 17.2239 1.5 17.5C1.5 17.7761 1.72386 18 2 18V17ZM22.3536 17.8536C22.5488 17.6583 22.5488 17.3417 22.3536 17.1464L19.1716 13.9645C18.9763 13.7692 18.6597 13.7692 18.4645 13.9645C18.2692 14.1597 18.2692 14.4763 18.4645 14.6716L21.2929 17.5L18.4645 20.3284C18.2692 20.5237 18.2692 20.8403 18.4645 21.0355C18.6597 21.2308 18.9763 21.2308 19.1716 21.0355L22.3536 17.8536ZM2 18H22V17H2V18Z" fill="#120C5A"/>
<path d="M14.6611 13.5H13.2695V9.19824L13.1914 9.50098C13.0156 10.1878 12.8577 10.707 12.7178 11.0586L11.751 13.5H10.6914L9.70996 11.0391C9.56999 10.681 9.42025 10.1781 9.26074 9.53027L9.16797 9.19824V13.5H7.78125V8.04102H9.83203L10.7695 10.3701C10.8672 10.6208 10.9567 10.9089 11.0381 11.2344C11.1227 11.5599 11.1797 11.8382 11.209 12.0693C11.3164 11.5811 11.3994 11.2311 11.458 11.0195C11.5199 10.8047 11.5866 10.6077 11.6582 10.4287C11.7298 10.2497 12.0537 9.45378 12.6299 8.04102H14.6611V13.5Z" fill="#120C5A"/>
<path d="M18.1562 8.5H16.1602V8.08008L16.877 7.35547C17.0892 7.13802 17.2279 6.98763 17.293 6.9043C17.3581 6.81966 17.4049 6.74154 17.4336 6.66992C17.4622 6.59831 17.4766 6.52409 17.4766 6.44727C17.4766 6.33268 17.4447 6.2474 17.3809 6.19141C17.3184 6.13542 17.2344 6.10742 17.1289 6.10742C17.0182 6.10742 16.9108 6.13281 16.8066 6.18359C16.7025 6.23438 16.5938 6.30664 16.4805 6.40039L16.1523 6.01172C16.293 5.89193 16.4095 5.80729 16.502 5.75781C16.5944 5.70833 16.6953 5.67057 16.8047 5.64453C16.9141 5.61719 17.0365 5.60352 17.1719 5.60352C17.3503 5.60352 17.5078 5.63607 17.6445 5.70117C17.7812 5.76628 17.8874 5.85742 17.9629 5.97461C18.0384 6.0918 18.0762 6.22591 18.0762 6.37695C18.0762 6.50846 18.0527 6.63216 18.0059 6.74805C17.9603 6.86263 17.8887 6.98047 17.791 7.10156C17.6947 7.22266 17.5241 7.39518 17.2793 7.61914L16.9121 7.96484V7.99219H18.1562V8.5Z" fill="#120C5A"/>
</svg>
