<svg width="38" height="38" viewBox="0 0 38 38" fill="none" xmlns="http://www.w3.org/2000/svg">
<path d="M25.333 20.833H27.8663V22.0997H25.333V20.833Z" fill="black"/>
<path d="M5.7002 28.4331H6.96686V29.6998H5.7002V28.4331Z" fill="black"/>
<path d="M14.5664 28.4331H15.8331V29.6998H14.5664V28.4331Z" fill="black"/>
<path d="M29.1338 28.4331H30.4005V29.6998H29.1338V28.4331Z" fill="black"/>
<path d="M37.5484 18.0051L34.4787 12.8884C34.3089 12.6079 34.0699 12.3757 33.7845 12.2143C33.4991 12.0528 33.177 11.9674 32.8491 11.9663H23.4333C23.2654 11.9663 23.1043 12.033 22.9855 12.1518C22.8667 12.2706 22.8 12.4317 22.8 12.5996V24.633H21.5333V22.0996C21.5333 21.9317 21.4666 21.7706 21.3478 21.6518C21.2291 21.533 21.068 21.4663 20.9 21.4663H17.7333C17.5654 21.4663 17.4043 21.5331 17.2856 21.6519L16.2045 22.733H0.633333C0.465363 22.733 0.304272 22.7997 0.185499 22.9185C0.066726 23.0372 0 23.1983 0 23.3663V28.433C0 28.7689 0.133452 29.0911 0.370998 29.3286C0.608544 29.5662 0.930726 29.6996 1.26667 29.6996H2.59033C2.73919 30.5847 3.19687 31.3884 3.88211 31.968C4.56735 32.5477 5.43583 32.8657 6.33333 32.8657C7.23084 32.8657 8.09931 32.5477 8.78456 31.968C9.4698 31.3884 9.92748 30.5847 10.0763 29.6996H11.457C11.6059 30.5847 12.0635 31.3884 12.7488 31.968C13.434 32.5477 14.3025 32.8657 15.2 32.8657C16.0975 32.8657 16.966 32.5477 17.6512 31.968C18.3365 31.3884 18.7941 30.5847 18.943 29.6996H26.0237C26.1725 30.5847 26.6302 31.3884 27.3154 31.968C28.0007 32.5477 28.8692 32.8657 29.7667 32.8657C30.6642 32.8657 31.5326 32.5477 32.2179 31.968C32.9031 31.3884 33.3608 30.5847 33.5097 29.6996H36.1C36.6039 29.6996 37.0872 29.4995 37.4435 29.1431C37.7998 28.7868 38 28.3036 38 27.7996V19.6347C38 19.0606 37.8439 18.4974 37.5484 18.0051ZM33.3931 13.5408L36.2482 18.2996H26.6V13.233H32.8491C32.9585 13.2334 33.0661 13.2619 33.1613 13.3158C33.2566 13.3697 33.3364 13.4472 33.3931 13.5408ZM22.8 25.8996V28.433H21.5333V25.8996H22.8ZM6.33333 31.5996C5.83229 31.5996 5.34249 31.4511 4.92589 31.1727C4.50928 30.8943 4.18458 30.4987 3.99284 30.0358C3.8011 29.5729 3.75093 29.0635 3.84868 28.5721C3.94643 28.0807 4.1877 27.6293 4.542 27.275C4.89629 26.9207 5.34769 26.6794 5.8391 26.5817C6.33052 26.4839 6.83989 26.5341 7.3028 26.7258C7.7657 26.9176 8.16136 27.2423 8.43972 27.6589C8.71809 28.0755 8.86667 28.5653 8.86667 29.0663C8.86667 29.7382 8.59976 30.3826 8.12467 30.8576C7.64958 31.3327 7.00522 31.5996 6.33333 31.5996ZM15.2 31.5996C14.699 31.5996 14.2092 31.4511 13.7926 31.1727C13.376 30.8943 13.0512 30.4987 12.8595 30.0358C12.6678 29.5729 12.6176 29.0635 12.7153 28.5721C12.8131 28.0807 13.0544 27.6293 13.4087 27.275C13.763 26.9207 14.2144 26.6794 14.7058 26.5817C15.1972 26.4839 15.7066 26.5341 16.1695 26.7258C16.6324 26.9176 17.028 27.2423 17.3064 27.6589C17.5848 28.0755 17.7333 28.5653 17.7333 29.0663C17.7333 29.7382 17.4664 30.3826 16.9913 30.8576C16.5162 31.3327 15.8719 31.5996 15.2 31.5996ZM15.2 25.2663C14.3029 25.268 13.4352 25.5867 12.7502 26.1661C12.0653 26.7456 11.6073 27.5485 11.457 28.433H10.0763C9.92748 27.5479 9.4698 26.7442 8.78456 26.1646C8.09931 25.585 7.23084 25.2669 6.33333 25.2669C5.43583 25.2669 4.56735 25.585 3.88211 26.1646C3.19687 26.7442 2.73919 27.5479 2.59033 28.433H1.26667V23.9996H16.4667C16.6346 23.9996 16.7957 23.9329 16.9144 23.8141L17.9955 22.733H20.2667V28.433H18.943C18.7927 27.5485 18.3347 26.7456 17.6498 26.1661C16.9648 25.5867 16.0971 25.268 15.2 25.2663ZM29.7667 31.5996C29.2656 31.5996 28.7758 31.4511 28.3592 31.1727C27.9426 30.8943 27.6179 30.4987 27.4262 30.0358C27.2344 29.5729 27.1843 29.0635 27.282 28.5721C27.3798 28.0807 27.621 27.6293 27.9753 27.275C28.3296 26.9207 28.781 26.6794 29.2724 26.5817C29.7639 26.4839 30.2732 26.5341 30.7361 26.7258C31.199 26.9176 31.5947 27.2423 31.8731 27.6589C32.1514 28.0755 32.3 28.5653 32.3 29.0663C32.3 29.7382 32.0331 30.3826 31.558 30.8576C31.0829 31.3327 30.4385 31.5996 29.7667 31.5996ZM36.1 28.433H33.5097C33.3608 27.5479 32.9031 26.7442 32.2179 26.1646C31.5326 25.585 30.6642 25.2669 29.7667 25.2669C28.8692 25.2669 28.0007 25.585 27.3154 26.1646C26.6302 26.7442 26.1725 27.5479 26.0237 28.433H24.0667V13.233H25.3333V18.933C25.3333 19.1009 25.4001 19.262 25.5188 19.3808C25.6376 19.4996 25.7987 19.5663 25.9667 19.5663H36.7238C36.7238 19.5891 36.7333 19.6113 36.7333 19.6347V20.833H34.2C33.8641 20.833 33.5419 20.9664 33.3043 21.204C33.0668 21.4415 32.9333 21.7637 32.9333 22.0996V23.3663C32.9333 23.7022 33.0668 24.0244 33.3043 24.262C33.5419 24.4995 33.8641 24.633 34.2 24.633H36.7333V25.8996H34.8333V27.1663H36.7333V27.7996C36.7333 27.9676 36.6666 28.1287 36.5478 28.2475C36.4291 28.3662 36.268 28.433 36.1 28.433ZM36.7333 22.0996V23.3663H34.2V22.0996H36.7333Z" fill="black"/>
<path d="M0.3762 18.8789C0.6137 18.9846 6.251 21.4667 10.7667 21.4667C15.2823 21.4667 20.919 18.9846 21.1571 18.8789C21.2691 18.8291 21.3643 18.7479 21.431 18.6452C21.4978 18.5425 21.5333 18.4225 21.5333 18.3V8.16667C21.5333 8.04413 21.4978 7.92422 21.431 7.82147C21.3643 7.71872 21.2691 7.63755 21.1571 7.5878C20.919 7.48203 15.2823 5 10.7667 5C6.251 5 0.6137 7.48203 0.3762 7.5878C0.264215 7.63755 0.169067 7.71872 0.102293 7.82147C0.035518 7.92422 -1.55476e-05 8.04413 5.10324e-09 8.16667V18.3C-1.55476e-05 18.4225 0.035518 18.5425 0.102293 18.6452C0.169067 18.7479 0.264215 18.8291 0.3762 18.8789ZM5.06667 19.2171V7.24707C5.86657 7.0121 6.72727 6.79233 7.6 6.6188V19.8453C6.72727 19.6718 5.86657 19.452 5.06667 19.2171ZM20.2667 8.58593V17.8807C18.9405 18.4267 14.3729 20.2 10.7667 20.2C10.1309 20.1953 9.49611 20.1479 8.86667 20.0581V6.40853C9.49611 6.31881 10.1309 6.27141 10.7667 6.26667C14.3729 6.26667 18.9405 8.04 20.2667 8.58593ZM1.26667 8.58593C1.74863 8.38707 2.66 8.02543 3.8 7.6467V18.82C2.66 18.44 1.74863 18.0796 1.26667 17.8807V8.58593Z" fill="black"/>
</svg>
