<svg width="17" height="21" viewBox="0 0 17 21" fill="none" xmlns="http://www.w3.org/2000/svg">
<path d="M2.2666 10.1452V1.9834C2.2666 1.2959 2.80848 0.733398 3.47077 0.733398H11.4749L16.7166 6.3584V19.4834C16.7166 20.1709 16.1747 20.7334 15.5124 20.7334H3.47077C2.80848 20.7334 2.2666 20.1709 2.2666 19.4834V17.204" stroke="#120C5A" stroke-width="0.5"/>
<path d="M12.7497 6.61575H16.9997L11.333 0.733398V5.14516C11.333 5.95399 11.9705 6.61575 12.7497 6.61575Z" fill="#120C5A"/>
<path d="M14.2 17.0562C14.2 17.2792 14.029 17.4402 13.8479 17.4402H0.602083C0.421041 17.4402 0.25 17.2792 0.25 17.0562V10.7156C0.25 10.4926 0.421041 10.3315 0.602083 10.3315H13.8479C14.029 10.3315 14.2 10.4926 14.2 10.7156V17.0562Z" stroke="#120C5A" stroke-width="0.5"/>
<path d="M2.62402 12.5755C2.62402 12.4105 2.74926 12.2305 2.95095 12.2305H4.063C4.68917 12.2305 5.25272 12.6655 5.25272 13.4992C5.25272 14.2892 4.68917 14.7292 4.063 14.7292H3.25922V15.3892C3.25922 15.6092 3.12435 15.7336 2.95095 15.7336C2.792 15.7336 2.62402 15.6092 2.62402 15.3892V12.5755ZM3.25922 12.8598V14.1048H4.063C4.38572 14.1048 4.641 13.8092 4.641 13.4992C4.641 13.1498 4.38572 12.8598 4.063 12.8598H3.25922Z" fill="#120C5A"/>
<path d="M6.19563 15.734C6.03668 15.734 5.86328 15.644 5.86328 15.4246V12.5859C5.86328 12.4065 6.03668 12.2759 6.19563 12.2759H7.29805C9.49806 12.2759 9.44989 15.734 7.3414 15.734H6.19563ZM6.49908 12.8859V15.1246H7.29805C8.59794 15.1246 8.65574 12.8859 7.29805 12.8859H6.49908Z" fill="#120C5A"/>
<path d="M10.2304 12.926V13.7204H11.458C11.6314 13.7204 11.8048 13.9004 11.8048 14.0748C11.8048 14.2398 11.6314 14.3748 11.458 14.3748H10.2304V15.4241C10.2304 15.5991 10.1106 15.7335 9.94197 15.7335C9.73003 15.7335 9.60059 15.5991 9.60059 15.4241V12.5854C9.60059 12.406 9.73064 12.2754 9.94197 12.2754H11.632C11.8439 12.2754 11.9692 12.406 11.9692 12.5854C11.9692 12.7454 11.8439 12.9254 11.632 12.9254H10.2304V12.926Z" fill="#120C5A"/>
</svg>
