<svg width="20" height="20" viewBox="0 0 20 20" fill="none" xmlns="http://www.w3.org/2000/svg">
<path d="M18.7844 13.0083C18.6873 12.6603 18.5527 12.3247 18.3825 12.0098L18.8656 11.3688C19.0233 11.1593 19.0052 10.8609 18.8273 10.6725L17.9933 9.79886C17.8134 9.61046 17.5291 9.59423 17.3298 9.76027L16.7243 10.2646C16.4121 10.0763 16.0803 9.9296 15.7347 9.82637L15.643 9.00782C15.6131 8.74256 15.3996 8.54385 15.1469 8.54414L13.9683 8.54551C13.7155 8.5458 13.5025 8.74503 13.4732 9.01033L13.3871 9.80008C13.0161 9.90206 12.6609 10.0538 12.3274 10.2511L11.7405 9.76468C11.5409 9.59911 11.2567 9.61809 11.0772 9.80483L10.2449 10.6804C10.0655 10.8692 10.05 11.1677 10.2082 11.3768L10.6649 11.9836C10.4757 12.3278 10.328 12.6948 10.2297 13.0784L9.52693 13.1642C9.27423 13.1955 9.08495 13.4196 9.08523 13.6849L9.08653 14.9222C9.08681 15.1875 9.27659 15.4111 9.52933 15.4419L10.2224 15.5261C10.3176 15.9052 10.4601 16.2678 10.6421 16.6075L10.2162 17.1738C10.0585 17.3833 10.0766 17.6817 10.2545 17.8701L11.0866 18.7417C11.2664 18.9301 11.5508 18.9463 11.75 18.7803L12.2727 18.3444C12.6125 18.5534 12.976 18.7125 13.3571 18.8199L13.4369 19.5307C13.4668 19.7959 13.6802 19.9946 13.9329 19.9943L15.1116 19.993C15.3643 19.9927 15.5773 19.7935 15.6066 19.5281L15.6849 18.8172C16.0757 18.7069 16.4486 18.5406 16.7959 18.3226L17.3393 18.7738C17.5389 18.9394 17.8232 18.9204 18.0026 18.7337L18.8349 17.8581C19.0143 17.6693 19.0298 17.3708 18.8717 17.1616L18.4169 16.5591C18.5982 16.2148 18.736 15.8478 18.8264 15.4664L19.5529 15.3785C19.8056 15.3471 19.9949 15.123 19.9946 14.8577L19.9933 13.6204C19.993 13.3551 19.8032 13.1315 19.5505 13.1007L18.7844 13.0083ZM14.5174 16.3605C13.4434 16.3617 12.5678 15.4446 12.5666 14.3171C12.5654 13.1896 13.4391 12.2705 14.5131 12.2692C15.5872 12.268 16.4628 13.1851 16.464 14.3126C16.4651 15.4401 15.5915 16.3592 14.5174 16.3605Z" fill="#120C5A"/>
<path d="M1.42643 13.1935L2.11926 13.8063C2.33259 13.9952 2.64683 13.9856 2.84876 13.7847L3.23072 13.4082C3.55389 13.5716 3.89681 13.6866 4.25069 13.7531L4.3589 14.3065C4.41413 14.5925 4.66705 14.7906 4.94394 14.7672L5.847 14.6854C6.12385 14.6597 6.34114 14.4219 6.34962 14.1289L6.36659 13.5661C6.71367 13.4342 7.04089 13.2539 7.33951 13.0275L7.79688 13.3453C8.03002 13.5065 8.33979 13.46 8.51972 13.236L9.10347 12.5041C9.28344 12.2801 9.2743 11.9503 9.08293 11.7383L8.6825 11.2912C8.82062 10.9635 8.91914 10.6197 8.97588 10.2667L9.54708 10.1438C9.8195 10.0858 10.0082 9.8203 9.98592 9.52965L9.90801 8.58166C9.88353 8.29104 9.65696 8.06293 9.37788 8.05403L8.76038 8.03401C8.64794 7.72504 8.50043 7.43223 8.32217 7.15795L8.66657 6.61085C8.82013 6.36616 8.77584 6.04095 8.56251 5.85205L7.86968 5.23926C7.65631 5.05035 7.3421 5.05994 7.14013 5.26086L6.68793 5.70659C6.39113 5.56161 6.079 5.45356 5.75811 5.38934L5.63215 4.73898C5.57691 4.45301 5.324 4.25492 5.04715 4.27831L4.14409 4.36009C3.86724 4.38579 3.64995 4.62361 3.64147 4.9166L3.62236 5.55331C3.29287 5.67595 2.98104 5.8424 2.69339 6.04801L2.19419 5.70258C1.96109 5.54137 1.65132 5.58787 1.47135 5.81183L0.8876 6.53914C0.707668 6.7631 0.716805 7.09296 0.908183 7.30496L1.3108 7.75198C1.1639 8.07971 1.05657 8.42584 0.995459 8.78118L0.446227 8.89946C0.173806 8.95745 -0.0148933 9.22294 0.00738716 9.51359L0.0852951 10.4616C0.109773 10.7522 0.336347 10.9803 0.61543 10.9892L1.167 11.007C1.28164 11.3437 1.4358 11.6618 1.62726 11.9569L1.32674 12.4324C1.16876 12.6771 1.21305 13.0046 1.42643 13.1935ZM4.82442 7.70871C5.79999 7.6199 6.66222 8.38246 6.74459 9.40654C6.82919 10.4306 6.10275 11.3358 5.12723 11.4222C4.15166 11.511 3.28942 10.7485 3.20706 9.72438C3.12246 8.70026 3.8489 7.79517 4.82442 7.70871Z" fill="#120C5A"/>
<path d="M15.98 5.14492C16.2568 5.11461 16.4697 4.86987 16.4716 4.57688L16.4776 3.99327C16.4817 3.70031 16.2749 3.45142 15.998 3.41481L15.5892 3.35994C15.5208 3.09933 15.4238 2.85032 15.2983 2.61517L15.5617 2.27347C15.7372 2.04492 15.7237 1.71735 15.5279 1.50767L15.1385 1.09059C14.9427 0.880905 14.6307 0.8582 14.4089 1.03838L14.0818 1.30404C13.8509 1.16129 13.6069 1.04852 13.3519 0.970408L13.3075 0.527562C13.2786 0.236944 13.0455 0.0134604 12.7664 0.0114771L12.2104 0.00520121C11.9313 0.00091102 11.6942 0.218022 11.6594 0.508714L11.6093 0.9286C11.3325 1.00045 11.0689 1.10915 10.8185 1.25246L10.5106 0.992157C10.2929 0.807869 9.98085 0.822072 9.7811 1.0276L9.38379 1.43636C9.18404 1.64187 9.16241 1.96948 9.33404 2.20226L9.56954 2.52265C9.42478 2.77656 9.31297 3.04658 9.23636 3.3304L8.87163 3.37004C8.59479 3.40035 8.38192 3.64511 8.38 3.93807L8.37405 4.52171C8.36994 4.81465 8.57676 5.06356 8.85367 5.10015L9.20973 5.14818C9.27815 5.42952 9.37949 5.7016 9.51161 5.95519L9.28997 6.24149C9.11441 6.47006 9.12794 6.7976 9.32373 7.00729L9.7131 7.42436C9.90889 7.63407 10.221 7.65678 10.4427 7.47657L10.7084 7.26173C10.9591 7.42061 11.2273 7.54256 11.5086 7.62527L11.5442 7.98739C11.5731 8.27803 11.8062 8.5015 12.0853 8.50348L12.6413 8.50975C12.9203 8.51404 13.1574 8.29693 13.1923 8.00624L13.2359 7.64632C13.5258 7.56757 13.8048 7.44727 14.0639 7.29014L14.3388 7.52511C14.5566 7.7094 14.8686 7.69517 15.0684 7.48966L15.4679 7.07857C15.6676 6.87306 15.6892 6.54545 15.5176 6.31269L15.2821 5.99461C15.4181 5.74071 15.5255 5.47072 15.5955 5.18688L15.98 5.14492ZM12.3923 5.80883C11.5946 5.80053 10.9545 5.11153 10.9624 4.27417C10.9703 3.43681 11.6266 2.7648 12.4243 2.77308C13.222 2.78138 13.8621 3.47036 13.8542 4.30775C13.8463 5.14509 13.19 5.81711 12.3923 5.80883Z" fill="#120C5A"/>
</svg>
